<svg width="20" height="20" viewBox="0 0 20 20" fill="none" xmlns="http://www.w3.org/2000/svg">
<path d="M12.849 17C12.6686 16.9448 12.4737 16.9117 12.3041 16.8271C11.539 16.4518 11.1709 15.8189 11.1673 14.9616C11.1673 12.18 11.1673 9.39842 11.1673 6.61682C11.1673 5.99869 11.1564 5.37687 11.1889 4.75874C11.2358 3.90145 11.9432 3.15821 12.7804 3.03679C13.8054 2.88962 14.7004 3.50039 14.9422 4.51958C14.9819 4.68147 14.9927 4.85072 14.9927 5.01997C14.9927 8.34244 14.9891 11.6649 14.9999 14.9911C14.9999 15.9661 14.3575 16.7608 13.495 16.9558C13.4409 16.9669 13.3867 16.9853 13.3326 17H12.849Z" fill="#000091"/>
<path d="M5.66732 17.0002C5.47244 16.9377 5.27034 16.8972 5.0899 16.8052C4.41142 16.4593 4.04331 15.8927 4.00722 15.1164C3.99639 14.8846 4.00361 14.6528 4.00361 14.421C4 11.2972 4.00361 8.17341 4 5.04962C4 4.43149 4.19127 3.90166 4.65322 3.50061C5.24147 2.9855 5.91995 2.8604 6.63812 3.16211C7.33825 3.45646 7.73163 4.01204 7.81463 4.78839C7.82907 4.91349 7.82907 5.04226 7.82907 5.17104C7.82907 8.43464 7.82907 11.6982 7.82907 14.9618C7.82907 15.7382 7.52231 16.349 6.85827 16.739C6.66699 16.853 6.43602 16.8972 6.2231 16.9745C6.19783 16.9818 6.17257 16.9929 6.15092 17.0002H5.66732Z" fill="#000091"/>
</svg>
