<svg width="20" height="20" viewBox="0 0 20 20" fill="none" xmlns="http://www.w3.org/2000/svg">
<g clip-path="url(#clip0_14_175)">
<path d="M4.00929 9.98324C4.00929 8.31759 4.03949 6.65092 4.00018 4.98578C3.96472 3.46654 5.48071 2.50046 6.73645 3.27116C9.49429 4.96362 12.2598 6.64164 15.0335 8.30367C16.0889 8.93622 16.2926 10.3338 15.5818 11.2061C15.4241 11.3994 15.2175 11.5607 15.0081 11.6886C12.8234 13.0238 10.6336 14.3487 8.44513 15.6767C7.85224 16.0365 7.26415 16.4041 6.66648 16.7541C5.57801 17.3923 4.26427 16.7263 4.03134 15.422C4.00594 15.2787 4.00977 15.1276 4.00977 14.9802C4.00833 13.3145 4.00881 11.6484 4.00881 9.98273L4.00929 9.98324Z" fill="#000091"/>
</g>
<defs>
<clipPath id="clip0_14_175">
<rect width="12" height="14" fill="white" transform="translate(4 3)"/>
</clipPath>
</defs>
</svg>
