<svg width="20" height="20" viewBox="0 0 20 20" fill="none" xmlns="http://www.w3.org/2000/svg">
<path d="M6.33333 4L9.66667 7.33333V4.83333C12.425 4.83333 14.6667 7.075 14.6667 9.83333C14.6667 10.675 14.4583 11.475 14.0833 12.1667L15.3 13.3833C15.95 12.3583 16.3333 11.1417 16.3333 9.83333C16.3333 6.15 13.35 3.16667 9.66667 3.16667V0.666668L6.33333 4ZM9.66667 14.8333C6.90833 14.8333 4.66667 12.5917 4.66667 9.83333C4.66667 8.99167 4.875 8.19167 5.25 7.5L4.03333 6.28333C3.38333 7.30833 3 8.525 3 9.83333C3 13.5167 5.98333 16.5 9.66667 16.5V19L13 15.6667L9.66667 12.3333V14.8333Z" fill="#000091"/>
</svg>
