<svg width="20" height="20" viewBox="0 0 20 20" fill="none" xmlns="http://www.w3.org/2000/svg">
<g clip-path="url(#clip0_14_177)">
<path d="M7.24274 19C7.19694 18.9831 7.15158 18.9645 7.10488 18.9503C6.59474 18.7951 6.33788 18.3843 6.43263 17.8662C6.78874 15.9277 7.16191 13.9919 7.49646 12.0499C7.63387 11.251 7.70932 10.4401 7.77398 9.63146C7.81215 9.15682 7.65004 8.97806 7.18796 8.83433C6.19193 8.52427 5.19142 8.22751 4.19989 7.90413C3.91743 7.81187 3.64035 7.67524 3.39202 7.51245C2.67711 7.04224 3.06376 6.01401 3.55997 5.7869C3.76025 5.69507 3.96099 5.70084 4.16441 5.76205C5.51834 6.1706 6.89741 6.46913 8.29714 6.67629C9.52533 6.85771 10.749 6.82533 11.9745 6.62971C13.2782 6.42167 14.5602 6.12624 15.8279 5.76427C16.246 5.64495 16.5824 5.7696 16.8006 6.14354C17.1096 6.67274 17.1105 7.29598 16.4198 7.6331C15.9465 7.86377 15.4377 8.02523 14.9397 8.204C14.2733 8.44265 13.6019 8.66799 12.9324 8.8991C12.9059 8.90797 12.8789 8.91595 12.8533 8.92616C12.2332 9.179 12.1425 9.2584 12.2049 9.97879C12.3176 11.2834 12.5511 12.572 12.8021 13.8575C13.0635 15.1958 13.3118 16.5372 13.5584 17.8782C13.6531 18.3932 13.3954 18.7911 12.8897 18.9485C12.8435 18.9627 12.799 18.9831 12.7536 19.0004H12.2493C11.8084 18.8616 11.5704 18.5453 11.4594 18.1181C11.4415 18.049 11.4262 17.9784 11.4105 17.9088C11.1303 16.6428 10.8631 15.3737 10.564 14.1126C10.463 13.6863 10.2932 13.2733 10.1289 12.8648C10.0476 12.6625 9.92679 12.6656 9.83249 12.8621C9.72516 13.0852 9.63131 13.3177 9.55991 13.5545C9.14991 14.9155 8.88317 16.3088 8.61867 17.7021C8.51045 18.2707 8.38291 18.8186 7.71201 19.0004H7.24139L7.24274 19Z" fill="#000091"/>
<path d="M9.98653 5.71725C8.94426 5.71415 8.11259 4.87799 8.11708 3.83822C8.12202 2.81842 8.96806 1.99734 10.0112 2C11.0544 2.00266 11.8856 2.83838 11.8807 3.87903C11.8757 4.89972 11.0306 5.72036 9.98698 5.7177L9.98653 5.71725Z" fill="#000091"/>
</g>
<defs>
<clipPath id="clip0_14_177">
<rect width="14" height="17" fill="white" transform="translate(3 2)"/>
</clipPath>
</defs>
</svg>
